# xmcd
#
# Track frame offsets:
#	150
#	11672
#	24240
#	39232
#	53527
#	67217
#	80770
#	93787
#	110247
#	125147
#
# Disc length: 1855 seconds
# Revision: 1
# Processed by: cddbd v1.5.2PL0 Copyright (c) Steve Scherf et al.
# Submitted via: dBpowerAMP V12.0
#
DISCID=80073d0a
DTITLE=Donna Fargo - Best Of Donna Fargo
DYEAR=1977
DGENRE=Country
TTITLE0=The Happiest Girl In The Whole U. S. A.
TTITLE1=Funny Face
TTITLE2=That Was Yesterday
TTITLE3=Do I Love You (Yes In Every Way)
TTITLE4=Somebody Special
TTITLE5=Mockin' Bird Hill
TTITLE6=Shame On Me
TTITLE7=Another Goodbye
TTITLE8=Daddy
TTITLE9=Ragamuffin Man
EXTD=
EXTT0=
EXTT1=
EXTT2=
EXTT3=
EXTT4=
EXTT5=
EXTT6=
EXTT7=
EXTT8=
EXTT9=
PLAYORDER=
